<svg width="86" height="102" viewBox="0 0 86 102" fill="none" xmlns="http://www.w3.org/2000/svg">
<path d="M0.833542 87.6884L0.833032 87.6875C0.378487 86.882 0.388078 85.8855 0.868943 85.0885C0.869159 85.0881 0.869374 85.0877 0.869589 85.0874L8.02715 73.1638C8.0272 73.1637 8.02725 73.1636 8.02729 73.1635C11.2807 67.7371 13.0019 61.526 13.0019 55.1959V44.75C13.0019 28.3947 26.3132 15.0834 42.6685 15.0834C59.0237 15.0834 72.3351 28.3947 72.3351 44.75V55.1959C72.3351 61.526 74.0563 67.7371 77.3097 73.1635C77.3097 73.1636 77.3098 73.1637 77.3098 73.1638L84.4674 85.0874L0.833542 87.6884ZM0.833542 87.6884C1.29333 88.4993 2.15526 89.0002 3.08509 89.0002H82.2517C83.1814 89.0002 84.0437 88.4996 84.5033 87.6882L84.5038 87.6874M0.833542 87.6884L84.5038 87.6874M84.5038 87.6874C84.9582 86.8819 84.949 85.8857 84.4681 85.0885L84.5038 87.6874ZM72.8772 75.8196L72.8773 75.8199L77.6891 83.8334H7.64748L12.4556 75.8198C16.1939 69.592 18.1685 62.4615 18.1685 55.1959V44.75C18.1685 31.2386 29.1571 20.25 42.6685 20.25C56.1798 20.25 67.1685 31.2386 67.1685 44.75V55.1959C67.1685 62.4615 69.1431 69.5919 72.8772 75.8196Z" fill="#ED1B24" stroke="#ED1B24"/>
<path d="M42.6685 0.5C37.7964 0.5 33.8351 4.46136 33.8351 9.3334V17.6668C33.8351 19.0928 34.9924 20.25 36.4185 20.25C37.8446 20.25 39.0019 19.0927 39.0019 17.6666V9.3334C39.0019 7.30954 40.6446 5.6668 42.6685 5.6668C44.6923 5.6668 46.3351 7.30954 46.3351 9.3334V17.6668C46.3351 19.0928 47.4924 20.25 48.9185 20.25C50.3446 20.25 51.5019 19.0927 51.5019 17.6666V9.3334C51.5019 4.46136 47.5405 0.5 42.6685 0.5Z" fill="#ED1B24" stroke="#ED1B24"/>
<path d="M52.1167 85.1102L52.1153 85.1077C51.3867 83.878 49.8122 83.478 48.5824 84.1829L48.5823 84.1829L48.5783 84.1853C47.3444 84.908 46.9304 86.4937 47.6541 87.7243C48.1494 88.5664 48.4226 89.5827 48.4226 90.5833C48.4226 93.753 45.8424 96.3333 42.6726 96.3333C39.5028 96.3333 36.9226 93.753 36.9226 90.5833C36.9226 89.5827 37.1958 88.5664 37.6911 87.7243L37.6923 87.7221C38.4095 86.4889 37.9972 84.9087 36.7677 84.1857L36.7677 84.1856L36.7613 84.182C35.5253 83.4792 33.9541 83.8762 33.2291 85.1091L33.2291 85.1091L33.2285 85.1102C32.2625 86.7623 31.7517 88.6536 31.7517 90.5835V90.5835C31.7519 96.6053 36.6465 101.5 42.6685 101.5C48.6907 101.5 53.5847 96.6053 53.5935 90.5842V90.5835C53.5935 88.6536 53.0827 86.7623 52.1167 85.1102Z" fill="#ED1B24" stroke="#ED1B24"/>
</svg>
