<svg width="100" height="100" viewBox="0 0 100 100" fill="none" xmlns="http://www.w3.org/2000/svg">
<path d="M50 0.5C63.2229 0.5 75.6517 5.6483 85.0017 14.9981C94.3517 24.3483 99.5 36.7771 99.5 50C99.5 63.2229 94.3517 75.6517 85.0017 85.0017C75.6517 94.3517 63.2229 99.5 50 99.5C36.7769 99.5 24.3481 94.3517 14.9981 85.0017C5.64811 75.6517 0.5 63.2229 0.5 50C0.5 36.7771 5.64811 24.3481 14.9981 14.9981C24.3479 5.6483 36.7769 0.5 50 0.5ZM5.35938 50C5.35938 74.6154 25.3846 94.6406 50 94.6406C74.6154 94.6406 94.6406 74.6154 94.6406 50C94.6406 25.3846 74.6154 5.35938 50 5.35938C25.3846 5.35938 5.35938 25.3846 5.35938 50Z" fill="#ED1B24" stroke="#ED1B24"/>
<path d="M43.5203 60.1815L43.8738 60.535L44.2274 60.1815L70.0983 34.3106C71.047 33.3619 72.5855 33.3619 73.5342 34.3104C74.483 35.2593 74.483 36.7978 73.5342 37.7464L73.5342 37.7465L45.5916 65.689C45.1172 66.1634 44.4961 66.4006 43.8737 66.4006C43.2512 66.4006 42.6302 66.1635 42.1557 65.689L26.4657 49.999C25.5168 49.0501 25.5168 47.5116 26.4657 46.563C27.4146 45.6142 28.9531 45.6143 29.9017 46.5629L43.5203 60.1815Z" fill="#ED1B24" stroke="#ED1B24"/>
</svg>
