<svg width="102" height="68" viewBox="0 0 102 68" fill="none" xmlns="http://www.w3.org/2000/svg">
<path d="M96.8801 1.33862H5.11993C2.56839 1.33862 0.5 3.40701 0.5 5.95855V62.0414C0.5 64.5929 2.56839 66.6613 5.11993 66.6613H96.8801C99.4316 66.6613 101.5 64.5929 101.5 62.0414V5.95855C101.5 3.40701 99.4316 1.33862 96.8801 1.33862ZM5.03735 5.58408C5.06451 5.57778 5.09265 5.57438 5.1214 5.57417H96.8786C96.9073 5.57438 96.9355 5.57778 96.9627 5.58408L51 34.2948L5.03735 5.58408ZM4.73555 56.0022V10.29L36.9762 30.4249L4.73555 56.0022ZM97.2645 62.0198C97.2645 62.2321 97.0923 62.4042 96.8801 62.4042H5.11993C4.90778 62.4042 4.73555 62.232 4.73555 62.0198V61.3991L40.7877 32.9066L49.8705 38.586C49.8707 38.5861 49.871 38.5863 49.8713 38.5865C50.5612 39.0212 51.4397 39.021 52.1295 38.586C52.1295 38.586 52.1295 38.586 52.1295 38.586L61.2123 32.9066L97.2645 61.3991V62.0198ZM97.2645 56.0059L64.9414 30.5116L97.2645 10.4805V56.0059Z" fill="#ED1B24" stroke="#ED1B24"/>
</svg>
