<svg width="82" height="101" viewBox="0 0 82 101" fill="none" xmlns="http://www.w3.org/2000/svg">
<path d="M81.5 50.5073C81.5 43.9208 76.8043 38.4251 70.5909 37.1545V27.3636C70.5909 12.506 57.2687 0.5 41 0.5C24.7313 0.5 11.4091 12.506 11.4091 27.3636V37.1545C5.19567 38.4252 0.5 43.9209 0.5 50.5091V86.04C0.5 93.5616 6.62027 99.6818 14.1436 99.6818H67.8564C75.3798 99.6818 81.5 93.5616 81.5 86.0382V50.5073ZM16.0455 27.3636C16.0455 15.1588 27.185 5.13636 41 5.13636C54.815 5.13636 65.9545 15.1588 65.9545 27.3636V36.8636H16.0455V27.3636ZM76.8636 86.0382C76.8636 91.0039 72.822 95.0455 67.8564 95.0455H14.1436C9.17796 95.0455 5.13636 91.0039 5.13636 86.0382V50.5073C5.13636 45.5416 9.17796 41.5 14.1436 41.5H67.8564C72.822 41.5 76.8636 45.5416 76.8636 50.5073V86.0382Z" fill="#ED1B24" stroke="#ED1B24"/>
<path d="M41 51.4092C36.713 51.4092 33.2273 54.8949 33.2273 59.1819V70.091C33.2273 74.3781 36.713 77.8637 41 77.8637C45.2871 77.8637 48.7728 74.3781 48.7728 70.091V59.1819C48.7728 54.8949 45.2871 51.4092 41 51.4092ZM44.1364 70.091C44.1364 71.8203 42.7293 73.2274 41 73.2274C39.2707 73.2274 37.8637 71.8203 37.8637 70.091V59.1819C37.8637 57.4526 39.2707 56.0455 41 56.0455C42.7293 56.0455 44.1364 57.4526 44.1364 59.1819V70.091Z" fill="#ED1B24" stroke="#ED1B24"/>
</svg>
