<svg width="102" height="86" viewBox="0 0 102 86" fill="none" xmlns="http://www.w3.org/2000/svg">
<path d="M14.5951 84.6371L14.5965 84.6377C14.9142 84.7677 15.2489 84.8335 15.5833 84.8335C16.2545 84.8335 16.9154 84.5711 17.4099 84.0766L33.3198 68.1667H94.75C98.4726 68.1667 101.5 65.1393 101.5 61.4167V7.24995C101.5 3.52736 98.4726 0.5 94.75 0.5H7.24995C3.52736 0.5 0.5 3.52736 0.5 7.24995V61.4167C0.5 65.1393 3.52734 68.1668 7.24993 68.167H13.0001V82.2503C13.0001 83.294 13.6277 84.238 14.5951 84.6371ZM5.66657 7.25014C5.66657 6.37672 6.37654 5.66676 7.24995 5.66676H94.7502C95.6219 5.66676 96.3336 6.37704 96.3336 7.25014V61.4169C96.3336 62.2883 95.6216 63.0003 94.7502 63.0003H32.2501C31.5638 63.0003 30.9078 63.2727 30.4235 63.757L18.1667 76.0139V65.5837C18.1667 64.1559 17.011 63.0003 15.5833 63.0003H7.24995C6.37685 63.0003 5.66657 62.2886 5.66657 61.4169V7.25014Z" fill="#ED1B24" stroke="#ED1B24"/>
<path d="M25 26H27.568L30.184 37.592L33.112 27.872V26H35.248L38.536 37.592L41.2 26H43.744L40.168 41.456H37.6L34.504 30.632L31.216 41.456H28.6L25 26Z" fill="#ED1B24"/>
<path d="M48.3154 26H59.0914V28.04H50.9314V32.72H58.2034V34.736H50.9314V39.44H59.0914V41.456H48.3154V26Z" fill="#ED1B24"/>
<path d="M63.5107 26H70.9987C72.5027 26 73.6307 26.36 74.3827 27.08C75.1347 27.784 75.5107 28.8 75.5107 30.128C75.5107 30.944 75.3427 31.64 75.0067 32.216C74.6867 32.776 74.2387 33.208 73.6627 33.512C74.4467 33.736 75.0467 34.128 75.4627 34.688C75.8947 35.232 76.1107 36 76.1107 36.992C76.1107 38.48 75.7027 39.6 74.8867 40.352C74.0867 41.088 72.9027 41.456 71.3347 41.456H63.5107V26ZM70.6387 32.6C72.2707 32.6 73.0867 31.848 73.0867 30.344C73.0867 29.512 72.8867 28.912 72.4867 28.544C72.0867 28.16 71.3747 27.968 70.3507 27.968H66.1267V32.6H70.6387ZM70.7827 39.536C71.7267 39.536 72.4067 39.336 72.8227 38.936C73.2547 38.536 73.4707 37.856 73.4707 36.896C73.4707 36.08 73.2467 35.48 72.7987 35.096C72.3667 34.712 71.6067 34.52 70.5187 34.52H66.1267V39.536H70.7827Z" fill="#ED1B24"/>
</svg>
