<svg width="102" height="86" viewBox="0 0 102 86" fill="none" xmlns="http://www.w3.org/2000/svg">
<path d="M14.5951 84.6371L14.5965 84.6377C14.9142 84.7677 15.2489 84.8335 15.5833 84.8335C16.2545 84.8335 16.9154 84.5711 17.4099 84.0766L33.3198 68.1667H94.75C98.4726 68.1667 101.5 65.1393 101.5 61.4167V7.24995C101.5 3.52736 98.4726 0.5 94.75 0.5H7.24995C3.52736 0.5 0.5 3.52736 0.5 7.24995V61.4167C0.5 65.1393 3.52734 68.1668 7.24993 68.167H13.0001V82.2503C13.0001 83.294 13.6277 84.238 14.5951 84.6371ZM5.66657 7.25014C5.66657 6.37672 6.37654 5.66676 7.24995 5.66676H94.7502C95.6219 5.66676 96.3336 6.37704 96.3336 7.25014V61.4169C96.3336 62.2883 95.6216 63.0003 94.7502 63.0003H32.2501C31.5638 63.0003 30.9078 63.2727 30.4235 63.757L18.1667 76.0139V65.5837C18.1667 64.1559 17.011 63.0003 15.5833 63.0003H7.24995C6.37685 63.0003 5.66657 62.2886 5.66657 61.4169V7.25014Z" fill="#ED1B24" stroke="#ED1B24"/>
<path d="M37.904 26H40.832L46.688 41.456H44L42.464 37.472H36.248L34.712 41.456H32L37.904 26ZM42.032 35.456L39.344 28.376L36.656 35.456H42.032Z" fill="#ED1B24"/>
<path d="M51.2607 26H58.1487C59.8607 26 61.1487 26.472 62.0127 27.416C62.8927 28.36 63.3327 29.608 63.3327 31.16C63.3327 32.696 62.8527 33.928 61.8927 34.856C60.9487 35.784 59.6687 36.248 58.0527 36.248H53.8767V41.456H51.2607V26ZM57.5727 34.184C58.5807 34.184 59.3567 33.92 59.9007 33.392C60.4447 32.848 60.7167 32.104 60.7167 31.16C60.7167 30.168 60.4607 29.4 59.9487 28.856C59.4367 28.312 58.6847 28.04 57.6927 28.04H53.8767V34.184H57.5727Z" fill="#ED1B24"/>
<path d="M67.4169 26H70.0329V41.456H67.4169V26Z" fill="#ED1B24"/>
</svg>
