<svg xmlns="http://www.w3.org/2000/svg" width="490" height="695"><defs><clipPath id="b"><path fill="#fff" d="M264 537V386h172v151zm15.921-133.19a2.5 2.5 0 00-2.501 2.501v110.057a2.5 2.5 0 002.501 2.501h140.072a2.5 2.5 0 002.501-2.501V406.311a2.5 2.5 0 00-2.501-2.501zm137.571 110.056h-135.07V408.813h135.07z"/></clipPath><clipPath id="c"><path fill="#fff" d="M307 453v-16.954a13.873 13.873 0 00-3.49 9.214c0 7.681 6.248 13.93 13.93 13.93 4.82 0 9.074-2.46 11.576-6.19h-7.133a8.87 8.87 0 01-4.443 1.187 8.874 8.874 0 01-4.445-1.187zm0-31h31v31h-8.984a13.846 13.846 0 002.353-7.738c0-7.684-6.248-13.932-13.93-13.932A13.9 13.9 0 00307 436.046zm10.44 14.333c4.922 0 8.927 4.007 8.927 8.927a8.935 8.935 0 01-4.484 7.74h-8.888a8.93 8.93 0 01-4.482-7.738c0-4.92 4.004-8.93 8.927-8.93z"/></clipPath><clipPath id="d"><path fill="#fff" d="M282.329 498v-46h88.862l-20.072 21.985-11.864-11.864a2.504 2.504 0 00-3.421-.11L294.96 498zm123.342-46v19.305L384.612 452zm0 46h-103.14l34.846-30.679 25.768 25.766a2.498 2.498 0 003.537 0 2.498 2.498 0 000-3.537l-12.024-12.023 22.964-25.148 28.05 25.713zm-110.748 5.868c.585 0 1.175-.206 1.65-.623l5.958-5.245h-7.571l-1.69 1.488a2.502 2.502 0 001.653 4.38zM405.789 478.2a2.503 2.503 0 003.535-.156 2.5 2.5 0 00-.156-3.534l-3.497-3.205v6.787zm-26.636-31.204a2.58 2.58 0 00-1.8-.655 2.506 2.506 0 00-1.737.813L371.191 452h13.421z"/></clipPath><clipPath id="e"><path fill="#fff" d="M146 420V274h150v146zm18.168-119.09a2.017 2.017 0 00-2.018 2.018v88.781c0 1.116.904 2.018 2.018 2.018h112.994a2.017 2.017 0 002.018-2.018v-88.781a2.017 2.017 0 00-2.018-2.018zm110.976 88.781H166.186v-84.745h108.958z"/></clipPath><clipPath id="f"><path fill="#fff" d="M180 366v-26h4.728c1.95 3.337 5.572 5.584 9.709 5.584s7.759-2.247 9.71-5.584H205v26zm25.674-31.651c0-6.199-5.04-11.239-11.237-11.239s-11.237 5.04-11.237 11.237c0 2.06.557 3.991 1.528 5.653h5.252a7.19 7.19 0 01-2.744-5.651c0-3.969 3.23-7.203 7.2-7.203 3.972 0 7.202 3.232 7.202 7.2a7.193 7.193 0 01-2.745 5.654h5.253a11.165 11.165 0 001.528-5.651zm-11.237 7.2A7.17 7.17 0 01189.98 340h8.913a7.165 7.165 0 01-4.456 1.548z"/></clipPath><clipPath id="g"><path fill="#fff" d="M202.265 403v-43.581l8.261-7.274 20.787 20.785a2.016 2.016 0 002.853 0 2.016 2.016 0 000-2.853l-9.7-9.7 18.526-20.286 22.722 20.83a2.019 2.019 0 003.02-.338V403zm0-80h66.47v35.281a2.021 2.021 0 00-.295-.336l-24.213-22.196a2.081 2.081 0 00-1.453-.528c-.535.024-1.04.26-1.4.655l-19.762 21.645-9.57-9.57a2.02 2.02 0 00-2.76-.09l-7.017 6.178zm-25.986 58.627c.472 0 .948-.166 1.332-.503l24.654-21.705v-5.38l-27.32 24.055a2.018 2.018 0 001.334 3.533zm92.456-23.346v2.302a2.019 2.019 0 000-2.302z"/></clipPath><clipPath id="h"><path fill="#fff" d="M69 309V206h91v103zm4.381-84.41a1.46 1.46 0 00-1.461 1.461v64.294a1.46 1.46 0 001.461 1.461h81.829a1.46 1.46 0 001.46-1.461V226.05a1.46 1.46 0 00-1.46-1.461zm80.367 64.294H74.842v-61.372h78.906z"/></clipPath><clipPath id="i"><path fill="#fff" d="M90 283v-19h19v19zm-2.84-34.202c0-4.488 3.65-8.138 8.138-8.138 4.487 0 8.137 3.65 8.137 8.139 0 4.486-3.65 8.136-8.137 8.136-4.488 0-8.138-3.65-8.138-8.137zm2.922.001a5.22 5.22 0 005.216 5.214 5.222 5.222 0 005.215-5.215 5.222 5.222 0 00-5.215-5.216 5.223 5.223 0 00-5.216 5.217z"/></clipPath><clipPath id="j"><path fill="#fff" d="M109.192 298v-34.064l12.805 12.803a1.46 1.46 0 002.066 0 1.46 1.46 0 000-2.066l-7.024-7.024 13.415-14.691 5.354 4.908V298zm0-73h26.616v28.901l-4.46-4.088a1.507 1.507 0 00-1.052-.383 1.464 1.464 0 00-1.014.475l-14.31 15.675-5.78-5.78zm-27.05 58.037c.342 0 .687-.12.964-.364l23.837-20.986 2.249 2.249V259.8l-1.151-1.152a1.463 1.463 0 00-2-.064l-24.865 21.893a1.462 1.462 0 00.966 2.559zm64.767-14.995a1.462 1.462 0 001.974-2.155L135.808 253.9v3.965z"/></clipPath><clipPath id="k"><path fill="#fff" d="M12 195v-71h79v71zm8.885-58.56c-.6 0-1.085.443-1.085.992v43.638c0 .549.486.992 1.085.992h60.737c.6 0 1.085-.443 1.085-.992v-43.638c0-.549-.486-.992-1.085-.992zm59.653 43.638H21.969v-41.654h58.569z"/></clipPath><clipPath id="l"><path fill="#fff" d="M34 155v-.084a3.318 3.318 0 01-.71-2.042c0-.76.262-1.464.71-2.042v-2.664c-1.727.973-2.88 2.718-2.88 4.705 0 3.046 2.71 5.524 6.04 5.524 2.507 0 4.662-1.404 5.575-3.397h-2.483c-.707.857-1.83 1.413-3.092 1.413s-2.385-.556-3.093-1.413zm0-15h15v15h-6.265c.3-.655.465-1.373.465-2.126 0-3.047-2.709-5.524-6.04-5.524-1.158 0-2.24.3-3.16.818zm3.16 9.334c2.135 0 3.871 1.588 3.871 3.54a3.33 3.33 0 01-.779 2.126h-6.185a3.6 3.6 0 01-.067-.084v-4.084c.702-.906 1.857-1.498 3.16-1.498z"/></clipPath><clipPath id="m"><path fill="#fff" d="M20.142 178v-23H61.01l-9.247 9.261-5.144-4.704a1.16 1.16 0 00-1.484-.043l-18.457 14.86a.934.934 0 00-.097 1.4c.214.223.514.336.814.336.254 0 .51-.081.716-.247l17.693-14.244 11.174 10.217c.424.387 1.11.387 1.533 0a.932.932 0 000-1.403l-5.213-4.767 9.957-9.972 10.602 8.888V178zm53.716-23v6.89l-8.22-6.89zm1.611 10.933c.442.37 1.128.342 1.533-.062a.933.933 0 00-.068-1.401l-3.077-2.58v2.692zM63.92 153.56a1.183 1.183 0 00-.78-.26 1.131 1.131 0 00-.753.323L61.01 155h4.627z"/></clipPath><clipPath id="n"><path fill="#fff" d="M0 103V44h59v59zm6.923-46.48c-.443 0-.803.328-.803.734v32.308c0 .406.36.734.803.734H51.89c.444 0 .803-.328.803-.734V57.254c0-.406-.36-.734-.803-.734zm44.164 32.308H7.726v-30.84h43.361z"/></clipPath><clipPath id="o"><path fill="#fff" d="M13 83V72h3.35c.737.49 1.643.778 2.622.778.979 0 1.885-.289 2.622-.778H24v11zm10.444-14.31c0-2.256-2.006-4.09-4.472-4.09-2.466 0-4.472 1.834-4.472 4.09 0 1.36.73 2.566 1.85 3.31h5.244c1.12-.744 1.85-1.95 1.85-3.31zm-4.472-2.621c1.58 0 2.866 1.176 2.866 2.62 0 1.444-1.286 2.62-2.866 2.62s-2.866-1.175-2.866-2.62c0-1.443 1.286-2.62 2.866-2.62z"/></clipPath><clipPath id="p"><path fill="#fff" d="M23.993 97V76.27l1.38-1.11 8.272 7.563a.856.856 0 001.135 0 .69.69 0 000-1.038l-3.86-3.53 7.373-7.382 8.714 7.305V97zm0-36h23.014v15.085l-8.223-6.892a.876.876 0 00-.578-.193.837.837 0 00-.557.239l-7.865 7.876-3.808-3.482a.86.86 0 00-1.099-.033l-.884.712zm-12.25 24.888c.188 0 .378-.06.53-.183l11.72-9.435v-1.958l-12.78 10.29a.691.691 0 00-.073 1.037c.16.165.381.249.603.249zm35.592-7.535a.857.857 0 001.135-.046.69.69 0 00-.05-1.037l-1.413-1.185v1.993z"/></clipPath><linearGradient id="a" x1="417.25" x2="107.68" y1="64.69" y2="742.11" gradientUnits="userSpaceOnUse"><stop offset="0" stop-color="#a91d1c"/><stop offset="1" stop-color="#ed1b24"/></linearGradient></defs><path fill="url(#a)" d="M127.459 13.731c-7.583 0-13.73 6.148-13.73 13.731v50.805h362.453V27.462c0-7.583-6.147-13.731-13.73-13.731zM100 27.462C100 12.295 112.294 0 127.459 0h334.993c15.165 0 27.459 12.295 27.459 27.462v639.864c0 15.167-12.294 27.462-27.459 27.462H127.459c-15.165 0-27.459-12.295-27.459-27.462V380h13.73v198.074h362.452V91.998H113.729V154H100zm13.73 639.864c0 7.583 6.146 13.731 13.728 13.731h334.994c7.583 0 13.73-6.148 13.73-13.731v-75.521H113.729zm227.905-628.88a6.865 6.865 0 010 13.732h-93.359a6.865 6.865 0 010-13.731zm-46.68 609.656c7.583 0 13.73-6.147 13.73-13.73 0-7.584-6.147-13.731-13.73-13.731-7.582 0-13.729 6.147-13.729 13.731 0 7.583 6.147 13.73 13.729 13.73zm-27.458-13.73c0-15.167 12.293-27.463 27.458-27.463s27.459 12.296 27.459 27.463c0 15.166-12.294 27.461-27.459 27.461s-27.458-12.295-27.458-27.461z"/><path fill="#ed1b24" d="M432.54 423.891a2.5 2.5 0 011.768 3.063l-28.485 106.307a2.5 2.5 0 01-3.063 1.769l-135.3-36.254a2.5 2.5 0 01-1.768-3.063l28.485-106.307a2.5 2.5 0 013.063-1.768zm-3.711 4.185L298.36 393.118l-27.19 101.473 130.47 34.959z"/><path fill="none" stroke="#ed1b24" stroke-miterlimit="20" stroke-width="2" d="M419.993 403.81a2.5 2.5 0 012.501 2.501v110.057a2.5 2.5 0 01-2.501 2.501H279.921a2.5 2.5 0 01-2.501-2.501V406.311a2.5 2.5 0 012.501-2.501zm-2.501 5.003h-135.07v105.053h135.07z" clip-path="url(&quot;#b&quot;)" transform="rotate(15 350 461.5)"/><path fill="#ed1b24" d="M309.297 433.78c1.989-7.42 9.64-11.837 17.061-9.85 7.42 1.989 11.838 9.641 9.85 17.063-1.988 7.418-9.641 11.836-17.06 9.848-7.42-1.989-11.839-9.64-9.85-17.061zm4.832 1.298c-1.273 4.752 1.558 9.657 6.313 10.931 4.754 1.274 9.66-1.56 10.933-6.312s-1.558-9.66-6.312-10.934c-4.755-1.274-9.66 1.563-10.934 6.316z"/><path fill="none" stroke="#ed1b24" stroke-miterlimit="20" stroke-width="2" d="M303.51 445.26c0-7.682 6.248-13.93 13.93-13.93 7.681 0 13.93 6.248 13.93 13.932 0 7.679-6.249 13.927-13.93 13.927-7.682 0-13.93-6.248-13.93-13.93zm5.003.002c0 4.92 4.004 8.925 8.927 8.925 4.922 0 8.927-4.007 8.927-8.927s-4.005-8.927-8.927-8.927c-4.923 0-8.927 4.01-8.927 8.93z" clip-path="url(&quot;#c&quot;)" transform="rotate(15 350 461.5)"/><path fill="#ed1b24" d="M285.834 488.17a2.497 2.497 0 001.755-.175l48.712-24.14 18.22 31.558a2.498 2.498 0 003.417.915 2.498 2.498 0 00.916-3.416l-8.503-14.726 28.69-18.347 20.525 32.23a2.503 2.503 0 003.455.765 2.5 2.5 0 00.764-3.453l-21.871-34.345a2.58 2.58 0 00-1.57-1.099 2.506 2.506 0 00-1.888.336l-30.606 19.575-8.39-14.53a2.504 2.504 0 00-3.277-.991L285.37 483.51a2.502 2.502 0 00.464 4.658z"/><path fill="none" stroke="#ed1b24" stroke-miterlimit="20" stroke-width="2" d="M294.923 503.868c.585 0 1.175-.206 1.65-.623l40.804-35.924v0l25.768 25.766a2.498 2.498 0 003.537 0 2.498 2.498 0 000-3.537l-12.024-12.023v0l22.964-25.148v0l28.167 25.82a2.503 2.503 0 003.535-.155 2.5 2.5 0 00-.156-3.534l-30.015-27.514a2.58 2.58 0 00-1.8-.655 2.506 2.506 0 00-1.737.813l-24.497 26.83v0l-11.864-11.863a2.504 2.504 0 00-3.422-.11l-42.564 37.477a2.502 2.502 0 001.654 4.38z" clip-path="url(&quot;#d&quot;)" transform="rotate(15 350 461.5)"/><path fill="#ed1b24" d="M237.943 276.35a2.017 2.017 0 012.827.39l53.603 70.773a2.017 2.017 0 01-.39 2.827l-90.075 68.222a2.017 2.017 0 01-2.827-.39l-53.603-70.773a2.017 2.017 0 01.39-2.827zm.828 4.436l-86.857 65.785 51.166 67.555 86.857-65.785z"/><path fill="none" stroke="#ed1b24" stroke-miterlimit="20" stroke-width="2" d="M277.162 300.91c1.114 0 2.018.902 2.018 2.018v88.781a2.017 2.017 0 01-2.018 2.018H164.168a2.017 2.017 0 01-2.018-2.018v-88.781c0-1.116.904-2.018 2.018-2.018zm-2.018 4.036H166.186v84.745h108.958z" clip-path="url(&quot;#e&quot;)" transform="rotate(-37.14 221 347)"/><path fill="#ed1b24" d="M183.228 359.736c-3.742-4.94-2.767-12 2.173-15.742 4.94-3.741 12-2.767 15.743 2.174 3.74 4.938 2.766 12-2.174 15.741s-12 2.767-15.742-2.173zm3.218-2.435c2.397 3.164 6.922 3.789 10.087 1.392 3.166-2.398 3.79-6.925 1.393-10.09s-6.923-3.79-10.088-1.392c-3.166 2.397-3.788 6.926-1.392 10.09z"/><path fill="none" stroke="#ed1b24" stroke-miterlimit="20" stroke-width="2" d="M183.2 334.347c0-6.197 5.04-11.237 11.237-11.237 6.196 0 11.237 5.04 11.237 11.239 0 6.194-5.04 11.235-11.237 11.235s-11.237-5.04-11.237-11.237zm4.036.002c0 3.969 3.23 7.2 7.2 7.2 3.972 0 7.202-3.233 7.202-7.202s-3.23-7.201-7.201-7.201c-3.971 0-7.201 3.234-7.201 7.203z" clip-path="url(&quot;#f&quot;)" transform="rotate(-37.14 221 347)"/><path fill="#ed1b24" d="M206.257 401.604c.376-.285.655-.704.758-1.205l8.742-42.974 29.12 4.019a2.016 2.016 0 002.274-1.723 2.016 2.016 0 00-1.722-2.274l-13.59-1.876 2.52-27.357 30.69 2.887a2.019 2.019 0 00.377-4.019l-32.703-3.075a2.081 2.081 0 00-1.477.457 2.018 2.018 0 00-.72 1.367l-2.686 29.186-13.407-1.85a2.02 2.02 0 00-2.254 1.594l-9.119 44.832a2.018 2.018 0 003.197 2.011z"/><path fill="none" stroke="#ed1b24" stroke-miterlimit="20" stroke-width="2" d="M176.279 381.627c.472 0 .948-.166 1.332-.503l32.915-28.979v0l20.787 20.785a2.016 2.016 0 002.853 0 2.016 2.016 0 000-2.853l-9.7-9.7v0l18.526-20.286v0l22.722 20.83a2.019 2.019 0 002.726-2.976l-24.213-22.196a2.081 2.081 0 00-1.453-.528c-.535.024-1.04.26-1.4.655l-19.762 21.645v0l-9.57-9.57a2.02 2.02 0 00-2.76-.09l-34.337 30.233a2.018 2.018 0 001.334 3.533z" clip-path="url(&quot;#g&quot;)" transform="rotate(-37.14 221 347)"/><path fill="#ed1b24" d="M94.558 209.099a1.46 1.46 0 011.817-.983l61.627 18.325a1.46 1.46 0 01.984 1.815l-23.323 78.436a1.46 1.46 0 01-1.817.984l-61.628-18.325a1.46 1.46 0 01-.984-1.817zm2.384 2.234l-22.49 75.633 58.827 17.492 22.49-75.633z"/><path fill="none" stroke="#ed1b24" stroke-miterlimit="20" stroke-width="2" d="M155.21 224.59a1.46 1.46 0 011.46 1.461v64.294a1.46 1.46 0 01-1.46 1.461H73.38a1.46 1.46 0 01-1.461-1.461V226.05a1.46 1.46 0 011.461-1.461zm-1.462 2.922H74.842v61.372h78.906z" clip-path="url(&quot;#h&quot;)" transform="rotate(-73.44 114.5 257.5)"/><path fill="#ed1b24" d="M98.367 281.226c-4.302-1.28-6.76-5.818-5.481-10.12 1.278-4.301 5.817-6.76 10.12-5.48 4.3 1.279 6.758 5.818 5.48 10.118-1.28 4.302-5.819 6.76-10.12 5.482zm.833-2.8a5.22 5.22 0 006.485-3.514 5.222 5.222 0 00-3.513-6.485 5.222 5.222 0 00-6.486 3.512 5.223 5.223 0 003.514 6.486z"/><path fill="none" stroke="#ed1b24" stroke-miterlimit="20" stroke-width="2" d="M87.16 248.798c0-4.488 3.65-8.138 8.138-8.138 4.487 0 8.137 3.65 8.137 8.139 0 4.486-3.65 8.136-8.137 8.136-4.488 0-8.138-3.65-8.138-8.137zm2.922.001a5.22 5.22 0 005.216 5.214 5.222 5.222 0 005.215-5.215 5.222 5.222 0 00-5.215-5.216 5.223 5.223 0 00-5.216 5.217z" clip-path="url(&quot;#i&quot;)" transform="rotate(-73.44 114.5 257.5)"/><path fill="#ed1b24" d="M129.755 295.794c.098-.327.08-.692-.074-1.027l-13.322-28.83 18.719-10.14a1.46 1.46 0 00.589-1.98 1.46 1.46 0 00-1.98-.589l-8.735 4.731-10.258-17.046 19.148-11.473a1.462 1.462 0 00-1.503-2.506l-20.405 12.225a1.507 1.507 0 00-.667.9 1.464 1.464 0 00.166 1.107l10.946 18.185-8.618 4.668a1.463 1.463 0 00-.632 1.898l13.898 30.074a1.462 1.462 0 002.728-.197z"/><path fill="none" stroke="#ed1b24" stroke-miterlimit="20" stroke-width="2" d="M82.142 283.037c.342 0 .687-.12.964-.364l23.837-20.986v0l15.054 15.052a1.46 1.46 0 002.066 0 1.46 1.46 0 000-2.066l-7.024-7.024v0l13.415-14.691v0l16.455 15.084a1.462 1.462 0 001.974-2.155l-17.534-16.074a1.507 1.507 0 00-1.052-.383 1.464 1.464 0 00-1.015.475l-14.31 15.675v0l-6.931-6.93a1.463 1.463 0 00-2-.065l-24.865 21.893a1.462 1.462 0 00.966 2.559z" clip-path="url(&quot;#j&quot;)" transform="rotate(-73.44 114.5 257.5)"/><path fill="#ed1b24" d="M88.666 151.9c.54.262.783.873.544 1.367l-19.048 39.261c-.24.494-.87.68-1.409.42l-54.646-26.512c-.54-.262-.782-.872-.543-1.366l19.048-39.261c.24-.494.87-.68 1.409-.42zm-1.84 1.312L34.13 127.648l-18.18 37.476 52.695 25.565z"/><path fill="none" stroke="#ed1b24" stroke-miterlimit="20" stroke-width="2" d="M81.622 136.44c.6 0 1.085.443 1.085.992v43.638c0 .549-.486.992-1.085.992H20.885c-.6 0-1.085-.443-1.085-.992v-43.638c0-.549.486-.992 1.085-.992zm-1.084 1.984H21.969v41.654h58.569z" clip-path="url(&quot;#k&quot;)" transform="rotate(25.88 51.5 159.5)"/><path fill="#ed1b24" d="M36.057 144.642c1.33-2.74 4.848-3.786 7.844-2.333 2.997 1.454 4.354 4.865 3.024 7.607-1.33 2.74-4.848 3.785-7.845 2.331-2.996-1.453-4.353-4.864-3.023-7.605zm1.951.948c-.851 1.755.018 3.942 1.938 4.873 1.92.932 4.176.26 5.028-1.495.85-1.754-.017-3.943-1.937-4.874-1.921-.932-4.178-.26-5.03 1.496z"/><path fill="none" stroke="#ed1b24" stroke-miterlimit="20" stroke-width="2" d="M31.12 152.873c0-3.046 2.71-5.523 6.04-5.523 3.331 0 6.04 2.477 6.04 5.524 0 3.045-2.709 5.522-6.04 5.522-3.33 0-6.04-2.477-6.04-5.523zm2.17.001c0 1.951 1.736 3.539 3.87 3.539 2.135 0 3.871-1.589 3.871-3.54 0-1.95-1.736-3.54-3.87-3.54-2.135 0-3.872 1.59-3.872 3.541z" clip-path="url(&quot;#l&quot;)" transform="rotate(25.88 51.5 159.5)"/><path fill="#ed1b24" d="M22.562 163.923c.229.11.495.15.752.09l22.136-5.093 5.594 14.07c.213.533.83.833 1.38.669a.932.932 0 00.612-1.262l-2.61-6.565 13.311-4.625 6.52 14.543c.236.526.866.8 1.407.613a.933.933 0 00.55-1.29l-6.947-15.496a1.183 1.183 0 00-.588-.574 1.131 1.131 0 00-.819-.039l-14.201 4.933-2.575-6.477a1.16 1.16 0 00-1.316-.687l-23.092 5.314a.934.934 0 00-.699 1.217c.095.294.316.527.586.658z"/><path fill="none" stroke="#ed1b24" stroke-miterlimit="20" stroke-width="2" d="M27.395 176.11c.254 0 .51-.081.716-.247l17.693-14.244v0l11.174 10.217c.424.387 1.11.387 1.533 0a.932.932 0 000-1.403l-5.213-4.767v0l9.957-9.972v0l12.214 10.239c.442.37 1.128.342 1.533-.062a.933.933 0 00-.068-1.401L63.92 153.56a1.183 1.183 0 00-.78-.26 1.131 1.131 0 00-.753.323L51.763 164.26v0l-5.144-4.704a1.16 1.16 0 00-1.484-.043l-18.457 14.86a.934.934 0 00-.097 1.4c.214.223.514.336.814.336z" clip-path="url(&quot;#m&quot;)" transform="rotate(25.88 51.5 159.5)"/><path fill="#ed1b24" d="M33.325 45.661c.314-.314.8-.336 1.087-.049l22.845 22.846c.288.287.265.773-.048 1.086l-31.797 31.797c-.313.313-.8.336-1.087.049L1.48 78.544c-.287-.287-.264-.773.049-1.086zm.471 1.607l-30.66 30.66 21.806 21.807 30.66-30.66z"/><path fill="none" stroke="#ed1b24" stroke-miterlimit="20" stroke-width="2" d="M51.89 56.52c.444 0 .803.328.803.734v32.308c0 .406-.36.734-.803.734H6.923c-.443 0-.803-.328-.803-.734V57.254c0-.406.36-.734.803-.734zm-.803 1.469H7.726v30.839h43.361z" clip-path="url(&quot;#n&quot;)" transform="rotate(-45 29.5 73.5)"/><path fill="#ed1b24" d="M15.492 80.705c-1.595-1.595-1.473-4.31.27-6.054 1.744-1.744 4.46-1.865 6.055-.27 1.593 1.594 1.472 4.31-.272 6.053-1.744 1.744-4.459 1.865-6.053.27zm1.136-1.135c1.02 1.02 2.762.943 3.879-.174s1.194-2.859.174-3.88c-1.022-1.021-2.763-.943-3.88.174s-1.194 2.859-.174 3.88z"/><path fill="none" stroke="#ed1b24" stroke-miterlimit="20" stroke-width="2" d="M14.5 68.69c0-2.256 2.006-4.09 4.472-4.09 2.466 0 4.472 1.834 4.472 4.09 0 2.254-2.006 4.088-4.472 4.088-2.466 0-4.472-1.834-4.472-4.089zm1.606 0c0 1.444 1.286 2.62 2.866 2.62s2.866-1.177 2.866-2.62c0-1.445-1.286-2.621-2.866-2.621s-2.866 1.177-2.866 2.62z" clip-path="url(&quot;#o&quot;)" transform="rotate(-45 29.5 73.5)"/><path fill="#ed1b24" d="M25.704 94.816a.843.843 0 00.245-.504l1.806-16.72 11.198-.501a.856.856 0 00.802-.803.69.69 0 00-.734-.734l-5.225.233-.007-10.433 11.754-1.034a.857.857 0 00.77-.835.69.69 0 00-.769-.698L33.02 63.89a.876.876 0 00-.545.272.837.837 0 00-.225.563l.008 11.13-5.155.23a.86.86 0 00-.8.755l-1.884 17.44a.691.691 0 00.682.785.838.838 0 00.603-.25z"/><path fill="none" stroke="#ed1b24" stroke-miterlimit="20" stroke-width="2" d="M11.743 85.888c.188 0 .378-.06.53-.183l13.1-10.546v0l8.272 7.564a.856.856 0 001.135 0 .69.69 0 000-1.038l-3.86-3.53v0l7.373-7.382v0l9.042 7.58a.857.857 0 001.135-.046.69.69 0 00-.05-1.037l-9.636-8.077a.876.876 0 00-.578-.193.837.837 0 00-.557.239l-7.865 7.876v0l-3.808-3.482a.86.86 0 00-1.099-.033L11.213 84.602a.691.691 0 00-.073 1.037c.16.165.381.249.603.249z" clip-path="url(&quot;#p&quot;)" transform="rotate(-45 29.5 73.5)"/></svg>