<svg width="188" height="335" fill="none" xmlns="http://www.w3.org/2000/svg"><path opacity=".06" fill-rule="evenodd" clip-rule="evenodd" d="M174.761 6.62H13.239a6.62 6.62 0 00-6.62 6.621v24.496H181.38V13.241a6.62 6.62 0 00-6.619-6.62zM0 37.738V321.76C0 329.072 5.928 335 13.24 335h161.52c7.312 0 13.239-5.928 13.239-13.241V13.241C188 5.928 182.073 0 174.761 0H13.239C5.927 0 0 5.928 0 13.241v24.496zm181.38 240.988V44.358H6.62v234.367h174.76zm-174.76 6.62v36.413a6.62 6.62 0 006.62 6.62h161.52a6.62 6.62 0 006.619-6.62v-36.413H6.62zM68.183 21.848a3.31 3.31 0 013.31-3.31h45.014a3.31 3.31 0 010 6.62H71.493a3.31 3.31 0 01-3.31-3.31zM100.62 305.87a6.62 6.62 0 11-13.24 0 6.62 6.62 0 0113.24 0zm6.619 0c0 7.312-5.927 13.241-13.239 13.241-7.312 0-13.24-5.929-13.24-13.241 0-7.313 5.928-13.242 13.24-13.242s13.239 5.929 13.239 13.242z" fill="url(#paint0_linear)"/><defs><linearGradient id="paint0_linear" x1="94" y1="0" x2="182.606" y2="309.645" gradientUnits="userSpaceOnUse"><stop stop-color="#ED1B24"/><stop offset="1" stop-color="#ED1B24" stop-opacity="0"/></linearGradient></defs></svg>