<svg xmlns="http://www.w3.org/2000/svg" width="54" height="48"><defs><linearGradient id="a" x1="30" x2="30" y1="0" y2="48" gradientUnits="userSpaceOnUse"><stop offset="0" stop-color="#f2c94c"/><stop offset="1" stop-color="#f2c94c" stop-opacity=".5"/></linearGradient></defs><path fill="url(#a)" d="M11.87 10.801c-.129.144-.41.607-.41 1.859v22.68c0 1.252.281 1.714.41 1.859.091.101.314.281 1.01.281s.918-.18 1.01-.281c.129-.144.41-.607.41-1.859V12.66c0-1.252-.281-1.714-.41-1.859-.092-.101-.314-.281-1.01-.281s-.919.18-1.01.281zm-7.886 33.29C1.835 41.81.86 38.614.86 34.92V13.08c0-3.694.975-6.89 3.124-9.171C6.15 1.609 9.242.52 12.88.52c3.638 0 6.73 1.088 8.896 3.389C23.925 6.19 24.9 9.386 24.9 13.08v21.84c0 3.694-.975 6.89-3.124 9.171-2.166 2.3-5.258 3.389-8.896 3.389-3.638 0-6.73-1.088-8.896-3.389zM36.369 18.1h4.58c.981 0 1.336-.22 1.48-.366.154-.156.48-.642.48-2.074v-2.34c0-1.742-.32-2.367-.473-2.554-.061-.075-.208-.246-.947-.246-.695 0-.918.18-1.01.281-.129.145-.41.607-.41 1.859v4.7H29.83v-4.28c0-3.668.917-6.862 3.016-9.151C34.97 1.61 38.029.52 41.669.52c3.64 0 6.7 1.09 8.824 3.409 2.1 2.29 3.016 5.483 3.016 9.151v1.08c0 2.442-.387 4.628-1.35 6.447a8.61 8.61 0 01-1.673 2.225c2.205 2.172 3.023 5.333 3.023 8.788v3.3c0 3.668-.917 6.862-3.016 9.151-2.125 2.319-5.184 3.409-8.824 3.409-3.64 0-6.7-1.09-8.824-3.409-2.099-2.29-3.016-5.483-3.016-9.151v-5.48h10.24v5.9c0 1.252.281 1.714.41 1.859.092.101.315.281 1.01.281.74 0 .892-.172.953-.246.148-.18.467-.788.467-2.494v-3.3c0-1.813-.325-2.556-.572-2.853-.167-.2-.539-.487-1.748-.487h-4.22zm12.49 5.952a7.245 7.245 0 00-1.97-1.252 7.245 7.245 0 001.995-1.214c1.794-1.558 2.625-4.007 2.625-7.426v-1.08c0-6.72-3.36-10.56-9.84-10.56s-9.84 3.84-9.84 10.56v2.28h6.24v-2.7c0-3 1.32-4.14 3.42-4.14 2.1 0 3.42 1.02 3.42 4.8v2.34c0 3.36-1.5 4.44-3.96 4.44h-2.58v6h2.22c3 0 4.32 1.44 4.32 5.34v3.3c0 3.72-1.32 4.74-3.42 4.74-2.1 0-3.42-1.14-3.42-4.14v-3.9h-6.24v3.48c0 6.72 3.36 10.56 9.84 10.56s9.84-3.84 9.84-10.56v-3.3c0-3.281-.783-5.886-2.65-7.568zM16.3 12.66v22.68c0 3-1.32 4.14-3.42 4.14-2.1 0-3.42-1.14-3.42-4.14V12.66c0-3 1.32-4.14 3.42-4.14 2.1 0 3.42 1.14 3.42 4.14zm6.6 22.26V13.08c0-6.72-3.54-10.56-10.02-10.56-6.48 0-10.02 3.84-10.02 10.56v21.84c0 6.72 3.54 10.56 10.02 10.56 6.48 0 10.02-3.84 10.02-10.56z"/></svg>