<svg xmlns="http://www.w3.org/2000/svg" width="54" height="48"><defs><linearGradient id="a" x1="30" x2="30" y1="0" y2="48" gradientUnits="userSpaceOnUse"><stop offset="0" stop-color="#f2c94c"/><stop offset="1" stop-color="#f2c94c" stop-opacity=".5"/></linearGradient></defs><path fill="url(#a)" d="M11.87 10.801c-.129.144-.41.607-.41 1.859v22.68c0 1.252.281 1.714.41 1.859.091.101.314.281 1.01.281s.918-.18 1.01-.281c.129-.144.41-.607.41-1.859V12.66c0-1.252-.281-1.714-.41-1.859-.092-.101-.314-.281-1.01-.281s-.919.18-1.01.281zm-7.886 33.29C1.835 41.81.86 38.614.86 34.92V13.08c0-3.694.975-6.89 3.124-9.171C6.15 1.609 9.242.52 12.88.52c3.638 0 6.73 1.088 8.896 3.389C23.925 6.19 24.9 9.386 24.9 13.08v21.84c0 3.694-.975 6.89-3.124 9.171-2.166 2.3-5.258 3.389-8.896 3.389-3.638 0-6.73-1.088-8.896-3.389zM30.189 47v-7.16c0-6.988 3.765-11.098 7.005-14.635l.06-.066c3.304-3.607 6.015-6.621 6.015-11.819 0-1.742-.32-2.367-.473-2.554-.061-.075-.208-.246-.947-.246-.696 0-.918.18-1.01.281-.129.145-.41.607-.41 1.859v6.5H30.19v-6.08c0-3.668.917-6.862 3.016-9.151C35.33 1.61 38.389.52 42.029.52c3.64 0 6.7 1.09 8.824 3.409 2.1 2.29 3.016 5.483 3.016 9.151 0 7.352-3.698 12.353-7.067 16.192-.588.67-1.146 1.284-1.674 1.865-1.045 1.15-1.967 2.164-2.748 3.201-.767 1.02-1.248 1.882-1.481 2.662h12.37v10zm8.65-10c.49-2.456 2.549-4.722 4.89-7.298 3.714-4.089 8.14-8.96 8.14-16.622 0-6.72-3.36-10.56-9.84-10.56s-9.84 3.84-9.84 10.56v4.08h6.24v-4.5c0-3 1.32-4.14 3.42-4.14 2.1 0 3.42 1.02 3.42 4.8 0 6.03-3.238 9.565-6.492 13.117-3.286 3.588-6.588 7.193-6.588 13.403V45h19.08v-6H38.79c-.06-.3-.06-.6-.06-.9a5.53 5.53 0 01.11-1.1zM16.3 12.66v22.68c0 3-1.32 4.14-3.42 4.14-2.1 0-3.42-1.14-3.42-4.14V12.66c0-3 1.32-4.14 3.42-4.14 2.1 0 3.42 1.14 3.42 4.14zm6.6 22.26V13.08c0-6.72-3.54-10.56-10.02-10.56-6.48 0-10.02 3.84-10.02 10.56v21.84c0 6.72 3.54 10.56 10.02 10.56 6.48 0 10.02-3.84 10.02-10.56z"/></svg>