<svg xmlns="http://www.w3.org/2000/svg" viewBox="0 0 47.809 47.809"><path d="M16.145 29.526c.001-.097-.028-.127-.123-.123a3.175 3.175 0 01-.365 0c-.099-.007-.127.026-.127.127.004.668.002 1.334.002 2v.143a.097.097 0 01-.039-.049c-.337-.707-.674-1.414-1.007-2.121-.034-.074-.074-.102-.154-.1-.189.006-.379.002-.569.002h-.247v2.985h.444c.165 0 .165-.001.165-.16v-2.254l.049.091c.348.744.696 1.488 1.04 2.235.031.068.066.09.137.09.229-.003.459-.003.688 0 .076 0 .106-.022.105-.104-.003-.256-.001-.51-.001-.764 0-.666-.002-1.332.002-1.998zm-6.799-.121c-.255.004-.509.01-.763-.002-.127-.007-.172.045-.206.154-.198.654-.405 1.305-.615 1.975-.014-.031-.019-.041-.022-.051-.19-.66-.382-1.318-.57-1.977-.022-.077-.053-.105-.134-.103-.15.006-.301.002-.451.002h-.483v2.984c.161 0 .315-.005.468.002.101.005.135-.027.134-.132-.003-.733-.001-1.469-.001-2.204v-.089c.126.346.235.693.342 1.04.134.431.268.858.399 1.29.022.07.057.1.13.096.121-.006.243.002.365-.006.031-.001.079-.035.089-.063.192-.597.38-1.191.568-1.787l.195-.61.019.004v2.461c.186 0 .364-.003.542.001.077.003.101-.026.1-.1v-2.783c.001-.078-.026-.104-.106-.102zm3.411.75c-.126-.325-.34-.571-.674-.698a1.732 1.732 0 00-.969-.075 1.192 1.192 0 00-.84.59 2.086 2.086 0 00-.251.864c.027.212.037.427.083.635.086.388.307.681.676.849.34.154.696.185 1.058.103.386-.089.691-.296.859-.664a1.995 1.995 0 00.058-1.604zm-.549.718c.001.229-.014.459-.109.672-.14.314-.336.441-.657.434-.319-.008-.527-.17-.626-.464a1.87 1.87 0 01.005-1.24c.108-.308.351-.459.669-.455a.645.645 0 01.626.467c.061.188.082.389.12.584l-.028.002zM5.372 15.471l-.403 2.992-.034-.002c-.043-.307-.085-.614-.131-.922-.097-.653-.199-1.306-.292-1.961-.013-.093-.042-.115-.131-.115-.574.004-1.146.002-1.72.002-.038 0-.076.004-.115.006a1845.84 1845.84 0 00-.442 2.993h-.032l-.404-2.996H0c.003.041.001.069.007.097.192.882.385 1.765.576 2.648.137.635.274 1.271.407 1.907.019.089.049.127.152.126.523-.006 1.046-.003 1.568-.003h.351l.442-3.079h.035l.442 3.079H5.8c.22 0 .22 0 .268-.218l.499-2.292.388-1.798c.032-.152.062-.306.094-.464H5.372zm4.616 3.534v-.549h1.67v-1.234H9.986v-.525h1.811c.002-.045.006-.076.006-.108 0-.338-.003-.674.002-1.011.001-.097-.034-.118-.126-.118-1.121.003-2.242.002-3.364.002-.141 0-.141 0-.141.141l.001 4.481c0 .05.004.099.008.151h3.669v-1.23H9.988zm28.344-3.536v2.872l-.027.004c-.014-.033-.029-.063-.041-.095-.313-.897-.627-1.793-.938-2.691-.026-.071-.057-.099-.137-.099-.677.004-1.353.005-2.031 0-.1 0-.127.029-.125.126.002 1.511.002 3.022.002 4.534 0 .037.003.076.008.119.042.003.074.005.104.005.433 0 .859-.003 1.291.002.095.001.119-.021.119-.119-.004-.895-.002-1.791-.002-2.686 0-.033.006-.065.008-.097.05.079.082.158.109.238.295.85.592 1.7.883 2.551.031.088.074.111.164.111.68-.004 1.359-.002 2.041-.002.025 0 .055-.004.082-.006v-4.767h-1.51zm-10.687 3.539c-.55.003-1.102.001-1.653.001-.039 0-.076-.004-.115-.006v-.545h1.666v-1.236h-1.664v-.525h1.812v-1.229h-3.607v4.768c.024.003.037.006.051.006 1.179 0 2.359 0 3.531.002.072 0 .094-.022.092-.093-.002-.343-.006-.687.002-1.031.002-.092-.029-.112-.115-.112zm5.893.137c-.035-.222-.056-.447-.097-.667-.063-.332-.271-.534-.598-.615l-.205-.052.109-.036c.254-.08.482-.198.643-.424.178-.256.201-.549.174-.844-.036-.432-.248-.743-.668-.899-.321-.119-.655-.141-.991-.143-.886-.005-1.771-.002-2.654-.002h-.114v4.773h1.832v-1.711c.157.013.305.016.446.04.119.019.199.1.226.219.028.125.047.252.067.379.058.327.113.654.168.981.013.07.041.101.121.101.547-.004 1.097-.002 1.644-.002.03 0 .062-.004.076-.005-.062-.369-.121-.731-.179-1.093zm-2.008-1.756c-.174.086-.359.08-.559.067.002-.307.002-.603.002-.912.201-.007.399-.021.59.06.164.071.211.21.209.376-.002.184-.072.326-.242.409zm13.921-1.879v10.382h.574V15.51h-.574zm-26.867-.041v1.276h1.179v3.492h1.881V16.74h1.169v-1.271h-4.229zm-1.994 1.958c-.318-.117-.649-.197-.974-.294-.208-.062-.419-.118-.624-.189-.108-.038-.16-.133-.154-.248.006-.121.073-.211.186-.236.127-.029.262-.045.39-.033a.29.29 0 01.276.27c.011.099.057.11.14.11.48-.002.96-.001 1.439-.001.035 0 .07-.004.1-.006.008-.016.012-.022.013-.028.002-.011.002-.021.002-.032-.012-.488-.216-.867-.649-1.11a2.298 2.298 0 00-.963-.266c-.535-.043-1.066-.037-1.582.135-.584.196-.991.556-1.062 1.201-.072.644.141 1.145.77 1.386.352.135.721.225 1.083.336.192.058.385.111.572.18.162.059.242.193.221.329a.415.415 0 01-.388.354c-.284.023-.45-.063-.517-.275-.024-.073-.036-.15-.055-.232h-1.779c-.004.027-.007.044-.007.062 0 .025 0 .05.002.075.053.635.393 1.048.986 1.266.37.137.756.179 1.148.184.439.006.873-.031 1.29-.177.551-.194.94-.539 1.052-1.137.146-.787-.166-1.35-.916-1.624zm10.611 3.772c-.308.006-.618.003-.924.004h-.84c-.002.044-.006.075-.006.106 0 1.522 0 3.043-.002 4.564 0 .082.019.111.109.111.539-.005 1.08-.002 1.621-.002.146 0 .146 0 .146-.146V21.7c0-.132-.004-.265 0-.397.001-.08-.024-.105-.104-.104zm-8.396 10.675c-.383.004-.766.002-1.15.002-.041 0-.083-.004-.136-.006 0-.228.003-.445-.001-.664-.002-.084.025-.11.109-.11.33.004.659.002.989.002.048 0 .098-.006.152-.008v-.489c-.051-.004-.097-.009-.142-.009-.333-.001-.667.001-1-.002-.036-.001-.102-.034-.102-.054-.008-.207-.005-.414-.005-.637h1.34c0-.125-.008-.242.002-.359.009-.11-.027-.141-.136-.139-.576.004-1.153.004-1.73 0-.102-.002-.133.025-.132.129.003.907.001 1.814.001 2.719v.132h2.04c0-.138-.005-.271.002-.403.004-.079-.021-.104-.101-.104zM15.61 21.212v.261c0 .931.001 1.863-.003 2.794 0 .109-.015.23-.049.335a.32.32 0 01-.305.231c-.157.007-.284-.057-.342-.207a.86.86 0 01-.064-.311c-.005-.992-.004-1.984-.004-2.976v-.131H12.97c-.003.027-.006.04-.006.054 0 1.086-.005 2.171.007 3.255.002.189.054.386.123.562.186.479.573.742 1.046.877.684.199 1.376.193 2.068.033.822-.191 1.283-.765 1.283-1.601.002-1.017.001-2.034.001-3.051v-.125H15.61zm22.137 9.734a1.606 1.606 0 00-.476-.225c-.211-.074-.434-.117-.649-.18-.275-.08-.373-.34-.215-.547.157-.209.565-.244.739-.049.076.084.113.205.175.32h.582c.041-.372-.203-.717-.582-.838a1.756 1.756 0 00-.899-.023 1.115 1.115 0 00-.484.24c-.324.281-.449 1.01.145 1.307.125.06.255.115.387.155.205.067.416.11.618.179.265.09.317.399.095.574a.593.593 0 01-.239.105c-.343.068-.707-.022-.705-.479 0-.022-.052-.059-.078-.06-.121-.007-.242-.003-.365-.003-.221 0-.225 0-.204.219.032.34.198.587.52.712.346.136.705.136 1.064.054.265-.06.493-.183.659-.408.25-.338.222-.822-.088-1.053zm3.21-15.436v10.382h.578V15.51h-.578zm-.433 13.908c-.037-.004-.066-.008-.094-.008-.575 0-1.147 0-1.72-.002-.094 0-.106.045-.106.125.002.905.002 1.813.002 2.717 0 .027-.008.055.002.076.012.024.037.059.057.059.194.005.387.003.596.003v-1.26h1.189v-.371c0-.142 0-.142-.143-.142-.314 0-.629.002-.943-.002-.039 0-.102-.033-.104-.054-.007-.216-.005-.432-.005-.661h1.269v-.48zm2.451 2.458c-.383 0-.767-.003-1.147.001-.087.001-.11-.029-.108-.11.006-.167.002-.336.002-.504 0-.166 0-.165.159-.165h.935c.051-.001.1-.005.162-.008v-.357c0-.141 0-.141-.144-.141-.332-.001-.666.001-.998-.003-.037 0-.106-.031-.106-.049-.006-.211-.004-.42-.004-.641h1.338c0-.132-.008-.25.002-.367.008-.106-.029-.133-.133-.131-.577.004-1.153.002-1.729.002-.041 0-.082.004-.127.006v2.972H43.1v-.505h-.125zm4.209-16.442a.628.628 0 00-.621.625c.002.34.293.621.641.618a.613.613 0 00.605-.622.606.606 0 00-.625-.621zm.005 1.181a.552.552 0 01-.543-.564c0-.31.246-.557.551-.554.307.003.529.243.527.567a.531.531 0 01-.535.551zm-1.276 15.126c-.024-.129-.039-.258-.061-.385-.041-.24-.168-.408-.445-.445.055-.022.086-.037.115-.051.356-.154.457-.412.453-.688a.715.715 0 00-.529-.701 1.99 1.99 0 00-.488-.063c-.383-.008-.766-.002-1.148-.002-.041 0-.082.004-.129.008v2.97h.652v-1.188h.559c.226 0 .299.065.332.289.041.274.082.551.125.825.004.029.033.076.051.077.218.005.435.003.632.003-.041-.225-.082-.438-.119-.649zm-.949-1.051c-.188.014-.379.008-.567.012-.062.002-.08-.032-.08-.088.002-.106 0-.213 0-.322 0-.106.002-.215 0-.321 0-.06.021-.082.082-.08.184.008.365.004.549.014.217.008.338.139.346.365.007.22-.131.404-.33.42zm-22.627-9.483v2.871l-.031.005c-.01-.025-.023-.048-.031-.073-.317-.903-.635-1.806-.948-2.71-.027-.079-.064-.101-.144-.1-.677.003-1.354.003-2.031-.001-.098-.001-.125.024-.125.125.002 1.513.001 3.022.001 4.534l.006.116h1.518l-.001-2.893.029-.004c.018.045.037.088.053.133.31.889.62 1.778.928 2.671.027.08.063.103.144.103.681-.002 1.362-.002 2.042-.002.031 0 .063-.005.099-.007v-4.768h-1.509z"/><path d="M47.497 15.848c-.02-.052-.084-.117-.134-.125-.125-.018-.256-.005-.379-.005v.679l.039.001v-.307c.125-.039.203-.019.25.087.029.061.066.119.106.172.019.024.054.037.08.055l.019-.022-.188-.298c.047-.013.084-.019.115-.034.088-.041.123-.122.092-.203zm-.272.172c-.186 0-.238-.076-.188-.224.004-.013.015-.034.021-.033.111.008.224.014.332.035.021.004.041.084.031.121-.011.036-.054.075-.091.091-.041.017-.092.009-.105.01zM25.354 29.405c-.588 0-1.176.001-1.763-.001-.092 0-.131.023-.123.121.008.098.006.193.001.291-.005.079.024.106.104.104.218-.005.437.002.655-.003.093-.004.122.023.122.119-.004.725-.002 1.449-.002 2.172 0 .039-.005.08.004.117.006.026.035.062.055.062.196.004.392.003.598.003v-.143c0-.703-.002-1.404 0-2.107.003-.247-.043-.219.224-.221.212-.002.426-.002.647-.002v-.512h-.522zm-4.002.017c-.068-.003-.1.022-.127.084-.108.241-.222.482-.333.72l-.246.529-.034-.075c-.178-.395-.355-.788-.536-1.182-.015-.03-.056-.07-.086-.071-.225-.005-.45-.003-.697-.003.022.045.033.075.048.104.297.555.597 1.106.89 1.664a.49.49 0 01.054.213c.005.293.004.588 0 .881-.001.078.021.106.103.104.143-.006.287-.006.43 0 .088.004.118-.024.117-.114a29.537 29.537 0 010-.893c0-.048.011-.107.035-.15.234-.447.472-.893.709-1.337.081-.151.16-.303.25-.473-.208 0-.392.003-.577-.001zm16.975-8.21v2.868a.148.148 0 01-.059-.081c-.317-.9-.631-1.8-.943-2.701-.023-.066-.051-.096-.127-.096-.687.003-1.374.003-2.062.001-.083-.001-.104.028-.104.106.002 1.522.004 3.044 0 4.565 0 .092.033.111.119.111.425-.007.85-.007 1.279 0 .097 0 .127-.026.126-.126-.004-.875-.002-1.748-.002-2.623v-.154a.224.224 0 01.07.099c.313.902.627 1.804.938 2.704.027.076.058.1.136.1.682-.004 1.36-.002 2.043-.002h.104v-4.771h-1.518zm-9.698 10.943c-.033-.22-.068-.442-.1-.665-.041-.279-.113-.533-.477-.58l.131-.053c.287-.125.455-.373.442-.674-.012-.318-.151-.572-.459-.688a1.708 1.708 0 00-.534-.088c-.396-.015-.796-.002-1.191-.006-.096 0-.121.028-.121.123.004.911.002 1.825.002 2.739.002.037.004.075.008.115h.658v-1.186c.229 0 .447-.007.666.004.096.004.172.069.195.172.021.08.033.16.045.242.037.254.072.508.108.768h.697c-.024-.082-.058-.15-.07-.223zm-.994-1.468c-.201.021-.406.013-.611.011-.021 0-.057-.043-.057-.065-.005-.24-.003-.479-.003-.722.251 0 .488-.019.722.006.174.018.264.18.26.389-.007.195-.128.362-.311.381zm5.838-8.124a2 2 0 00-1.082-1.24c-.365-.173-.754-.237-1.154-.244-.539-.009-1.059.072-1.52.368-.646.409-.918 1.035-.996 1.765-.045.413-.021.823.084 1.224.138.531.414.97.881 1.275.451.294.955.386 1.483.401.209-.021.423-.031.627-.069.779-.147 1.354-.569 1.64-1.324.268-.708.27-1.435.037-2.156zm-1.888 1.947c-.057.271-.226.381-.467.358-.14-.01-.261-.067-.306-.201-.063-.186-.133-.376-.143-.566-.011-.394.007-.791.024-1.187.006-.118.049-.238.09-.351a.372.372 0 01.361-.255c.182-.007.317.065.396.234.106.229.121.476.14.722.008.107 0 .215 0 .323l.034.003c-.041.307-.063.617-.129.92zm3.335 4.894c-.13.002-.263.006-.396-.002-.094-.005-.123.021-.123.118.004.691.002 1.384.002 2.074 0 .027-.002.049-.006.094-.02-.036-.031-.054-.041-.075-.334-.703-.668-1.406-1-2.111-.033-.073-.072-.102-.152-.1-.232.006-.467.006-.697 0-.102-.002-.125.03-.125.129.002.914.002 1.826.002 2.738v.121h.471c.144-.001.144-.001.144-.14v-2.244c.006-.002.013-.002.019-.003l.258.553c.27.583.541 1.167.816 1.749.017.038.075.08.116.081.241.008.48.004.72.005.063 0 .09-.022.09-.088a655.67 655.67 0 010-2.805c0-.068-.024-.095-.098-.094zm-3.095 2.886c-.104-.3-.208-.603-.315-.908-.218-.628-.435-1.255-.65-1.885-.023-.072-.062-.098-.139-.096a5.785 5.785 0 01-.527-.002c-.107-.007-.148.039-.182.133-.25.703-.502 1.405-.757 2.107l-.268.746c.19 0 .358-.004.526.002.075.002.107-.027.129-.096.047-.15.104-.298.148-.447.023-.07.059-.101.139-.099.254.006.51.002.764.002.3 0 .298 0 .394.289.037.115.056.267.136.328.078.058.229.02.346.021.09.002.18.001.281.001a6.657 6.657 0 01-.025-.096zm-1.82-1.048c.14-.401.275-.797.423-1.219l.395 1.219h-.818z"/></svg>