<svg width="120" height="24" viewBox="0 0 120 24" fill="none" xmlns="http://www.w3.org/2000/svg">
<path d="M18.842 1.90522C19.8587 1.90522 20.683 2.72946 20.683 3.74621V21.77C20.683 22.4287 20.1489 22.9628 19.4901 22.9628C18.8314 22.9628 18.2973 22.4287 18.2973 21.77V5.53145L10.5041 15.5513L2.58365 5.53145V21.77C2.58365 22.4287 2.04959 22.9628 1.39081 22.9628C0.73202 22.9628 0.197968 22.4287 0.197968 21.77V3.75249C0.197968 2.73227 1.02502 1.90522 2.04524 1.90522C2.6247 1.90522 3.17058 2.17712 3.51967 2.63962L10.5041 11.8933L17.3636 2.64916C17.7108 2.18115 18.2592 1.90522 18.842 1.90522Z" fill="#060402"/>
<path d="M40.6233 20.4181C39.3509 22.2842 37.453 23.2173 34.9295 23.2173C32.6392 23.2173 30.7731 22.422 29.3311 20.8316C27.9315 19.2623 27.2317 17.322 27.2317 15.0105C27.2317 12.6991 27.9315 10.7587 29.3311 9.18948C30.7731 7.59903 32.6922 6.80381 35.0885 6.80381C37.4848 6.80381 39.3297 7.74748 40.6233 9.63481V8.25112C40.6233 7.59233 41.1573 7.05828 41.8161 7.05828C42.4749 7.05828 43.009 7.59233 43.009 8.25112V21.77C43.009 22.4287 42.4749 22.9628 41.8161 22.9628C41.1573 22.9628 40.6233 22.4287 40.6233 21.77V20.4181ZM35.2476 21.0543C36.9652 21.0543 38.3224 20.4605 39.3191 19.2729C40.2734 18.149 40.7505 16.7282 40.7505 15.0105C40.7505 13.2929 40.2734 11.872 39.3191 10.7481C38.3224 9.56059 36.9652 8.96682 35.2476 8.96682C33.5511 8.96682 32.1727 9.56059 31.1124 10.7481C30.1157 11.872 29.6174 13.2929 29.6174 15.0105C29.6174 16.7282 30.1157 18.149 31.1124 19.2729C32.1727 20.4605 33.5511 21.0543 35.2476 21.0543Z" fill="#060402"/>
<path d="M50.3163 8.25112C50.3163 7.59233 50.8504 7.05828 51.5092 7.05828C52.168 7.05828 52.702 7.59233 52.702 8.25112V21.77C52.702 22.4287 52.168 22.9628 51.5092 22.9628C50.8504 22.9628 50.3163 22.4287 50.3163 21.77V8.25112ZM51.5092 1.26903C52.2207 1.26903 52.7974 1.84581 52.7974 2.5573V3.09805C52.7974 3.80954 52.2207 4.38632 51.5092 4.38632C50.7977 4.38632 50.2209 3.80954 50.2209 3.09805V2.5573C50.2209 1.84581 50.7977 1.26903 51.5092 1.26903Z" fill="#060402"/>
<path d="M62.4063 21.77C62.4063 22.4287 61.8722 22.9628 61.2134 22.9628C60.5546 22.9628 60.0206 22.4287 60.0206 21.77V1.88931C60.0206 1.23053 60.5546 0.696472 61.2134 0.696472C61.8722 0.696472 62.4063 1.23052 62.4063 1.88931V21.77Z" fill="#060402"/>
<path d="M86.1738 7.4718C86.1738 9.78325 85.2302 11.3631 83.3428 12.2113C85.0817 12.7839 86.2692 13.8336 86.9054 15.3604C87.1387 15.9542 87.2553 16.6434 87.2553 17.428C87.2553 19.9727 85.9087 21.6692 83.2156 22.5175C82.3249 22.8144 81.2752 22.9628 80.0665 22.9628H70.0784V1.90522H79.5257C81.7948 1.90522 83.5231 2.52019 84.7106 3.75014C85.6861 4.72562 86.1738 5.96617 86.1738 7.4718ZM72.4641 11.3207H79.5257C81.4767 11.3207 82.7809 10.6527 83.4382 9.31672C83.6715 8.85019 83.7881 8.35185 83.7881 7.8217C83.7881 7.27034 83.7139 6.7932 83.5655 6.39029C83.417 5.96617 83.1838 5.59506 82.8657 5.27697C82.1659 4.53476 81.1374 4.16366 79.7802 4.16366H72.4641V11.3207ZM80.321 20.7044C81.7842 20.7044 82.9081 20.4075 83.6927 19.8137C84.4773 19.1987 84.8696 18.3399 84.8696 17.2372C84.8696 16.1769 84.4879 15.3074 83.7245 14.6288C82.8763 13.8654 81.6569 13.4837 80.0665 13.4837H72.4641V20.7044H80.321Z" fill="#060402"/>
<path d="M96.7061 21.77C96.7061 22.4287 96.172 22.9628 95.5132 22.9628C94.8545 22.9628 94.3204 22.4287 94.3204 21.77V3.09806C94.3204 2.43927 94.8545 1.90522 95.5132 1.90522C96.172 1.90522 96.7061 2.43927 96.7061 3.09805V21.77Z" fill="#060402"/>
<path d="M120 3.05034C120 3.68278 119.487 4.19547 118.855 4.19547H112.652V21.77C112.652 22.4287 112.118 22.9628 111.459 22.9628C110.8 22.9628 110.266 22.4287 110.266 21.77V4.19547H104.064C103.431 4.19547 102.919 3.68278 102.919 3.05034C102.919 2.41791 103.431 1.90522 104.064 1.90522H118.855C119.487 1.90522 120 2.41791 120 3.05034Z" fill="#060402"/>
</svg>
