<svg width="200" height="522" viewBox="0 0 200 522" fill="none" xmlns="http://www.w3.org/2000/svg">
<g opacity="0.8">
<path d="M69.4439 406.56L4.55968 471.444C2.75547 473.248 2.75547 476.173 4.55968 477.977L44.2162 517.634C46.0204 519.438 48.9456 519.438 50.7498 517.634L115.634 452.75C117.438 450.946 117.438 448.02 115.634 446.216L75.9775 406.56C74.1733 404.755 71.2481 404.755 69.4439 406.56ZM7.50327 474.504C7.51803 474.481 7.53552 474.458 7.5557 474.438L72.4378 409.556C72.4583 409.536 72.4806 409.518 72.5043 409.503L60.3053 462.305L7.50327 474.504ZM42.9408 510.369L10.6174 478.045L47.6525 469.485L42.9408 510.369ZM112.624 449.196C112.774 449.346 112.774 449.589 112.624 449.74L47.7396 514.624C47.5895 514.774 47.346 514.774 47.196 514.624L46.7571 514.185L52.1026 468.545L62.5409 466.138C62.5412 466.138 62.5416 466.138 62.5419 466.138C63.3371 465.958 63.9581 465.336 64.1383 464.541C64.1383 464.541 64.1383 464.541 64.1383 464.541L66.5449 454.103L112.185 448.757L112.624 449.196ZM108.371 444.943L67.4883 449.772L76.1799 412.752L108.371 444.943Z" fill="#ED1B24" stroke="#ED1B24"/>
<path d="M128.542 304.198L60.367 276.114C58.4211 275.312 56.1939 276.24 55.3924 278.186L38.2278 319.854C37.4262 321.8 38.3538 324.027 40.2997 324.828L108.475 352.912C110.421 353.714 112.648 352.786 113.449 350.841L130.614 309.173C131.416 307.227 130.488 305 128.542 304.198ZM59.2396 279.543L126.927 307.426L84.3747 314.625L59.2396 279.543ZM43.4821 316.55L57.3277 282.939L74.9348 307.509L43.4821 316.55ZM110.127 349.453C110.083 349.561 109.96 349.612 109.852 349.568L41.6774 321.484C41.57 321.44 41.5186 321.316 41.5629 321.209L41.7347 320.792L77.1285 310.689L82.098 317.632C82.0983 317.632 82.0986 317.632 82.0989 317.633C82.5001 318.197 83.1896 318.481 83.8718 318.363C83.8723 318.363 83.8728 318.363 83.8733 318.363L92.2911 316.935L110.299 349.036L110.127 349.453ZM112.045 344.798L96.0008 316.262L125.834 311.324L112.045 344.798Z" fill="#ED1B24" stroke="#ED1B24"/>
<path d="M161.462 167.65L112.83 216.282C111.429 217.683 111.429 219.955 112.83 221.356L142.553 251.079C143.955 252.481 146.226 252.481 147.628 251.079L196.26 202.447C197.661 201.046 197.661 198.774 196.26 197.373L166.536 167.65C165.135 166.248 162.863 166.248 161.462 167.65ZM115.509 218.447L163.627 170.328L154.597 209.416L115.509 218.447ZM141.591 245.273L117.707 221.389L145.073 215.064L141.591 245.273ZM193.827 199.784C193.89 199.847 193.89 199.95 193.827 200.014L145.194 248.646C145.131 248.71 145.028 248.71 144.964 248.646L144.678 248.36L148.667 214.3L156.404 212.516C156.405 212.516 156.405 212.516 156.406 212.515C157.048 212.369 157.55 211.868 157.696 211.226C157.696 211.225 157.696 211.225 157.696 211.224L159.48 203.487L193.54 199.497L193.827 199.784ZM190.457 196.414L160.248 199.982L166.67 172.627L190.457 196.414Z" fill="#ED1B24" stroke="#ED1B24"/>
<path d="M139.61 84.5H86.3896C84.7851 84.5 83.5 85.8223 83.5 87.4339V120.566C83.5 122.178 84.7851 123.5 86.3896 123.5H139.61C141.215 123.5 142.5 122.178 142.5 120.566V87.4339C142.5 85.8223 141.215 84.5 139.61 84.5ZM113 103.93L87.0381 87.4115H138.962L113 103.93ZM86.3766 116.563V90.3707L104.513 101.908L86.3766 116.563ZM139.623 120.553C139.623 120.559 139.622 120.562 139.621 120.565C139.62 120.568 139.618 120.57 139.616 120.572C139.614 120.574 139.613 120.575 139.612 120.576L139.612 120.576C139.612 120.576 139.612 120.576 139.61 120.576H86.3896C86.3883 120.576 86.388 120.576 86.3878 120.576C86.3876 120.575 86.3873 120.575 86.3868 120.575C86.386 120.575 86.3849 120.574 86.3837 120.572C86.3817 120.57 86.3799 120.568 86.3787 120.565C86.3776 120.562 86.3766 120.559 86.3766 120.553V120.283L107.091 103.608L112.229 106.88C112.23 106.88 112.23 106.881 112.231 106.881C112.7 107.182 113.3 107.182 113.769 106.881C113.77 106.881 113.77 106.88 113.771 106.88L118.909 103.608L139.623 120.283V120.553ZM139.623 90.4817V116.567L121.441 101.959L139.623 90.4817Z" fill="#ED1B24" stroke="#ED1B24"/>
<path d="M171.694 1.97561L133.582 12.1878C132.364 12.514 131.655 13.7731 131.981 14.991L138.3 38.5723C138.626 39.7902 139.87 40.5258 141.088 40.1996L179.2 29.9875C180.417 29.6613 181.127 28.4021 180.801 27.1842L174.482 3.60296C174.156 2.38509 172.912 1.64941 171.694 1.97561ZM156.337 20.8881L135.107 14.2725L171.416 4.54369L156.337 20.8881ZM139.776 34.8419L134.912 16.6909L149.7 21.2975L139.776 34.8419ZM178.459 27.683L140.577 37.8332L140.572 37.8136L152.135 22.0949L156.351 23.4108C156.351 23.4109 156.351 23.411 156.352 23.4111C156.793 23.5503 157.274 23.4215 157.587 23.0803C157.587 23.08 157.587 23.0798 157.587 23.0795L160.58 19.8319L178.453 27.6634L178.459 27.683ZM172.814 6.61872L177.658 24.6953L162.268 17.9695L172.814 6.61872Z" fill="#ED1B24" stroke="#ED1B24"/>
</g>
</svg>
